<svg width="65" height="32" viewBox="0 0 65 32" fill="none" xmlns="http://www.w3.org/2000/svg">
<path d="M30.58 6C25.97 6.936 22.5 11.012 22.5 15.899C22.5 21.478 27.022 26 32.601 26C37.488 26 41.564 22.53 42.5 17.92" stroke="#7C7C7C" stroke-width="2" stroke-linecap="round" stroke-linejoin="round"/>
<path d="M39.438 22C39.8099 21.9215 40.1678 21.7877 40.5 21.603M35.188 21.341C35.7847 21.601 36.357 21.7943 36.905 21.921M31.355 18.948C31.768 19.238 32.21 19.586 32.64 19.886M23.5 17.826C23.822 17.669 24.17 17.488 24.563 17.333M26.95 17C27.512 17.062 28.142 17.223 28.856 17.523M38.5 11.5C38.5 11.1022 38.342 10.7206 38.0607 10.4393C37.7794 10.158 37.3978 10 37 10C36.6022 10 36.2206 10.158 35.9393 10.4393C35.658 10.7206 35.5 11.1022 35.5 11.5C35.5 11.8978 35.658 12.2794 35.9393 12.5607C36.2206 12.842 36.6022 13 37 13C37.3978 13 37.7794 12.842 38.0607 12.5607C38.342 12.2794 38.5 11.8978 38.5 11.5Z" stroke="#7C7C7C" stroke-width="2" stroke-linecap="round" stroke-linejoin="round"/>
<path d="M37.9881 17.62C37.7179 17.8658 37.3654 18.0014 37.0001 18C36.6348 18.0014 36.2823 17.8658 36.0121 17.62C33.5851 15.376 30.3331 12.868 31.9191 9.228C32.7771 7.259 34.8351 6 37.0001 6C39.1651 6 41.2231 7.26 42.0801 9.228C43.6651 12.864 40.4201 15.383 37.9881 17.62Z" stroke="#7C7C7C" stroke-width="2" stroke-linecap="round" stroke-linejoin="round"/>
</svg>
