<svg width="65" height="32" viewBox="0 0 65 32" fill="none" xmlns="http://www.w3.org/2000/svg">
<path d="M36.5 8.00201C38.675 8.01401 39.853 8.11101 40.621 8.87901C41.5 9.75801 41.5 11.172 41.5 14V20C41.5 22.829 41.5 24.243 40.621 25.122C39.743 26 38.328 26 35.5 26H29.5C26.672 26 25.257 26 24.379 25.122C23.5 24.242 23.5 22.829 23.5 20V14C23.5 11.172 23.5 9.75801 24.379 8.87901C25.147 8.11101 26.325 8.01401 28.5 8.00201" stroke="#7C7C7C" stroke-width="2"/>
<path d="M31 18H37.5M27.5 18H28M27.5 14.5H28M27.5 21.5H28M31 14.5H37.5M31 21.5H37.5" stroke="#7C7C7C" stroke-width="2" stroke-linecap="round"/>
<path d="M28.5 7.5C28.5 7.10218 28.658 6.72064 28.9393 6.43934C29.2206 6.15804 29.6022 6 30 6H35C35.3978 6 35.7794 6.15804 36.0607 6.43934C36.342 6.72064 36.5 7.10218 36.5 7.5V8.5C36.5 8.89782 36.342 9.27936 36.0607 9.56066C35.7794 9.84196 35.3978 10 35 10H30C29.6022 10 29.2206 9.84196 28.9393 9.56066C28.658 9.27936 28.5 8.89782 28.5 8.5V7.5Z" stroke="#7C7C7C" stroke-width="2"/>
</svg>
